<svg width="533" height="131" viewBox="0 0 533 131" fill="none" xmlns="http://www.w3.org/2000/svg">
<rect x="5" y="72" width="28" height="28" rx="7" stroke="black" stroke-width="10"/>
<rect x="5" y="30" width="28" height="28" rx="7" stroke="black" stroke-width="10"/>
<rect x="48" y="72" width="28" height="28" rx="7" stroke="black" stroke-width="10"/>
<rect x="48" y="30" width="28" height="28" rx="14" stroke="#34C759" stroke-width="10"/>
<line x1="67" y1="5" x2="67" y2="15" stroke="#34C759" stroke-width="10" stroke-linecap="round"/>
<line x1="84" y1="22.0711" x2="91.0711" y2="15" stroke="#34C759" stroke-width="10" stroke-linecap="round"/>
<line x1="91" y1="39" x2="101" y2="39" stroke="#34C759" stroke-width="10" stroke-linecap="round"/>
<path d="M129.048 78.064V66.928H143.352C146.36 66.928 148.664 66.16 150.264 64.624C151.928 63.088 152.76 61.008 152.76 58.384C152.76 55.952 151.96 53.936 150.36 52.336C148.76 50.736 146.456 49.936 143.448 49.936H129.048V38.224H145.176C149.656 38.224 153.592 39.088 156.984 40.816C160.376 42.48 163.032 44.816 164.952 47.824C166.872 50.832 167.832 54.288 167.832 58.192C167.832 62.16 166.872 65.648 164.952 68.656C163.032 71.6 160.344 73.904 156.888 75.568C153.432 77.232 149.368 78.064 144.696 78.064H129.048ZM117.528 106V38.224H132.6V106H117.528ZM154.392 106L133.272 76.816L147.096 73.072L172.248 106H154.392ZM178.809 106V59.344H193.497V106H178.809ZM186.201 52.912C183.897 52.912 181.977 52.144 180.441 50.608C178.969 49.008 178.233 47.088 178.233 44.848C178.233 42.544 178.969 40.624 180.441 39.088C181.977 37.552 183.897 36.784 186.201 36.784C188.505 36.784 190.393 37.552 191.865 39.088C193.337 40.624 194.073 42.544 194.073 44.848C194.073 47.088 193.337 49.008 191.865 50.608C190.393 52.144 188.505 52.912 186.201 52.912ZM220.832 107.152C218.08 107.152 215.36 106.8 212.672 106.096C210.048 105.392 207.584 104.4 205.28 103.12C203.04 101.776 201.12 100.24 199.52 98.512L207.872 90.064C209.408 91.728 211.232 93.04 213.344 94C215.456 94.896 217.76 95.344 220.256 95.344C221.984 95.344 223.296 95.088 224.192 94.576C225.152 94.064 225.632 93.36 225.632 92.464C225.632 91.312 225.056 90.448 223.904 89.872C222.816 89.232 221.408 88.688 219.68 88.24C217.952 87.728 216.128 87.184 214.208 86.608C212.288 86.032 210.464 85.232 208.736 84.208C207.008 83.184 205.6 81.776 204.512 79.984C203.424 78.128 202.88 75.792 202.88 72.976C202.88 69.968 203.648 67.376 205.184 65.2C206.72 62.96 208.896 61.2 211.712 59.92C214.528 58.64 217.824 58 221.6 58C225.568 58 229.216 58.704 232.544 60.112C235.936 61.456 238.688 63.472 240.8 66.16L232.448 74.608C230.976 72.88 229.312 71.664 227.456 70.96C225.664 70.256 223.904 69.904 222.176 69.904C220.512 69.904 219.264 70.16 218.432 70.672C217.6 71.12 217.184 71.792 217.184 72.688C217.184 73.648 217.728 74.416 218.816 74.992C219.904 75.568 221.312 76.08 223.04 76.528C224.768 76.976 226.592 77.52 228.512 78.16C230.432 78.8 232.256 79.664 233.984 80.752C235.712 81.84 237.12 83.312 238.208 85.168C239.296 86.96 239.84 89.328 239.84 92.272C239.84 96.816 238.112 100.432 234.656 103.12C231.264 105.808 226.656 107.152 220.832 107.152ZM270.849 107.056C265.793 107.056 261.281 106.032 257.313 103.984C253.409 101.872 250.337 98.96 248.097 95.248C245.857 91.536 244.737 87.344 244.737 82.672C244.737 78 245.825 73.84 248.001 70.192C250.241 66.48 253.249 63.568 257.025 61.456C260.801 59.344 265.057 58.288 269.793 58.288C274.401 58.288 278.465 59.28 281.985 61.264C285.505 63.248 288.257 66 290.241 69.52C292.289 73.04 293.313 77.072 293.313 81.616C293.313 82.448 293.249 83.344 293.121 84.304C293.057 85.2 292.897 86.256 292.641 87.472L252.417 87.568V77.488L286.401 77.392L280.065 81.616C280.001 78.928 279.585 76.72 278.817 74.992C278.049 73.2 276.897 71.856 275.361 70.96C273.889 70 272.065 69.52 269.889 69.52C267.585 69.52 265.569 70.064 263.841 71.152C262.177 72.176 260.865 73.648 259.905 75.568C259.009 77.488 258.561 79.824 258.561 82.576C258.561 85.328 259.041 87.696 260.001 89.68C261.025 91.6 262.433 93.104 264.225 94.192C266.081 95.216 268.257 95.728 270.753 95.728C273.057 95.728 275.137 95.344 276.993 94.576C278.849 93.744 280.481 92.528 281.889 90.928L289.953 98.992C287.649 101.68 284.865 103.696 281.601 105.04C278.337 106.384 274.753 107.056 270.849 107.056ZM305.996 106V40.048H320.684V106H305.996ZM295.436 71.824V59.344H331.244V71.824H295.436Z" fill="black"/>
<path d="M366.323 107.056C360.755 107.056 355.827 105.872 351.539 103.504C347.315 101.136 343.987 97.872 341.555 93.712C339.187 89.488 338.003 84.688 338.003 79.312V38.224H353.171V80.176C353.171 82.864 353.747 85.2 354.899 87.184C356.051 89.168 357.619 90.704 359.603 91.792C361.651 92.816 363.891 93.328 366.323 93.328C368.883 93.328 371.123 92.816 373.043 91.792C374.963 90.704 376.467 89.2 377.555 87.28C378.707 85.296 379.283 82.96 379.283 80.272V38.224H394.451V79.408C394.451 84.784 393.267 89.552 390.899 93.712C388.531 97.872 385.235 101.136 381.011 103.504C376.787 105.872 371.891 107.056 366.323 107.056ZM435.938 106V79.408C435.938 76.976 435.17 75.024 433.634 73.552C432.162 72.016 430.274 71.248 427.97 71.248C426.37 71.248 424.962 71.6 423.746 72.304C422.53 72.944 421.57 73.904 420.866 75.184C420.162 76.4 419.81 77.808 419.81 79.408L414.146 76.624C414.146 72.976 414.946 69.776 416.546 67.024C418.146 64.272 420.354 62.16 423.17 60.688C426.05 59.152 429.282 58.384 432.866 58.384C436.322 58.384 439.362 59.216 441.986 60.88C444.674 62.48 446.786 64.624 448.322 67.312C449.858 70 450.625 72.944 450.625 76.144V106H435.938ZM405.122 106V59.344H419.81V106H405.122ZM460.059 106V59.344H474.747V106H460.059ZM467.451 52.912C465.147 52.912 463.227 52.144 461.691 50.608C460.219 49.008 459.483 47.088 459.483 44.848C459.483 42.544 460.219 40.624 461.691 39.088C463.227 37.552 465.147 36.784 467.451 36.784C469.755 36.784 471.643 37.552 473.115 39.088C474.587 40.624 475.323 42.544 475.323 44.848C475.323 47.088 474.587 49.008 473.115 50.608C471.643 52.144 469.755 52.912 467.451 52.912ZM514.946 106L498.626 81.808L514.85 59.344H531.266L511.682 84.592L512.162 78.544L532.226 106H514.946ZM485.09 106V36.304H499.778V106H485.09Z" fill="#34C759"/>
</svg>
