<svg width="210" height="43" viewBox="0 0 210 43" fill="none" xmlns="http://www.w3.org/2000/svg">
<path d="M29.544 5.456C30.632 6.032 31.32 6.88 31.608 8C30.968 11.584 30.392 15.152 29.88 18.704C29.368 22.224 28.872 25.184 28.392 27.584C27.912 29.952 27.576 31.728 27.384 32.912C27.224 34.096 27.032 35.28 26.808 36.464L26.52 37.472C26.456 37.824 26.392 38.144 26.328 38.432C26.264 38.752 26.2 39.088 26.136 39.44C25.24 40.464 24.024 40.976 22.488 40.976C20.856 40.976 19.56 40.56 18.6 39.728C18.024 39.28 17.928 38.336 18.312 36.896C18.472 36.32 18.568 35.584 18.6 34.688C18.664 33.76 18.728 32.992 18.792 32.384V32.288C17.832 32.64 16.968 33.104 16.2 33.68C15.432 34.224 14.952 34.576 14.76 34.736C14.568 34.864 14.312 34.976 13.992 35.072C13.672 35.136 13.384 35.184 13.128 35.216C12.52 35.248 12.104 35.344 11.88 35.504C10.024 38.832 8.36 40.688 6.888 41.072C5.96 41.36 5.032 41.424 4.104 41.264C3.176 41.136 2.44 40.592 1.896 39.632C0.872 38.672 1.128 36.048 2.664 31.76C3.496 29.488 4.68 26.768 6.216 23.6C7.784 20.4 9.288 17.616 10.728 15.248C13.832 10.16 17.24 5.872 20.952 2.384C21.56 2.128 22.216 1.84 22.92 1.52C23.624 1.168 24.312 0.975999 24.984 0.943999C25.688 0.911998 26.408 0.991998 27.144 1.184C27.88 1.376 28.504 1.664 29.016 2.048C30.2 2.944 30.376 4.08 29.544 5.456ZM19.272 18.08C18.6 20 17.928 21.776 17.256 23.408C16.584 25.008 16.008 26.416 15.528 27.632L19.32 27.488C19.576 25.44 19.864 23.408 20.184 21.392C20.504 19.376 20.808 17.36 21.096 15.344L19.272 18.08ZM17.976 27.68C18.424 27.68 18.872 27.648 19.32 27.584V27.536C18.904 27.568 18.52 27.6 18.168 27.632C17.816 27.664 17.752 27.68 17.976 27.68ZM49.7738 14.432C51.0218 14.592 51.8538 15.04 52.2698 15.776C52.7178 16.48 52.8938 17.248 52.7978 18.08C52.7018 18.88 52.3978 19.616 51.8858 20.288C51.4058 20.928 50.8618 21.264 50.2538 21.296C50.0298 21.968 49.6778 22.432 49.1978 22.688C48.7178 22.944 48.1898 23.12 47.6138 23.216C47.0378 23.312 46.4298 23.424 45.7898 23.552C45.1818 23.648 44.6058 23.92 44.0618 24.368C43.5178 24.816 43.0538 25.264 42.6698 25.712C42.3178 26.128 42.0298 26.544 41.8058 26.96C41.4218 27.664 41.0858 28.528 40.7978 29.552C40.7338 30.256 41.0698 30.912 41.8058 31.52C42.6698 32.192 43.6138 32.496 44.6378 32.432C45.6618 32.336 46.4778 32.384 47.0858 32.576C47.7258 32.736 48.2058 32.976 48.5258 33.296C49.2298 34.032 49.1658 34.88 48.3338 35.84C46.7338 38.4 44.0458 39.92 40.2698 40.4C39.1498 40.56 38.0298 40.592 36.9098 40.496C35.7898 40.432 34.7018 40.016 33.6458 39.248C32.5898 38.48 31.7578 37.44 31.1498 36.128C29.8057 33.12 29.9177 29.616 31.4858 25.616C32.9898 21.872 35.2458 18.992 38.2538 16.976C41.5498 14.736 45.3898 13.888 49.7738 14.432ZM71.1488 14.432C72.3968 14.592 73.2288 15.04 73.6448 15.776C74.0928 16.48 74.2688 17.248 74.1728 18.08C74.0768 18.88 73.7728 19.616 73.2608 20.288C72.7808 20.928 72.2368 21.264 71.6288 21.296C71.4048 21.968 71.0528 22.432 70.5728 22.688C70.0928 22.944 69.5648 23.12 68.9888 23.216C68.4128 23.312 67.8048 23.424 67.1648 23.552C66.5568 23.648 65.9808 23.92 65.4368 24.368C64.8928 24.816 64.4288 25.264 64.0448 25.712C63.6928 26.128 63.4048 26.544 63.1808 26.96C62.7968 27.664 62.4608 28.528 62.1728 29.552C62.1088 30.256 62.4448 30.912 63.1808 31.52C64.0448 32.192 64.9888 32.496 66.0128 32.432C67.0368 32.336 67.8528 32.384 68.4608 32.576C69.1008 32.736 69.5808 32.976 69.9008 33.296C70.6048 34.032 70.5408 34.88 69.7088 35.84C68.1088 38.4 65.4208 39.92 61.6448 40.4C60.5248 40.56 59.4048 40.592 58.2848 40.496C57.1648 40.432 56.0768 40.016 55.0208 39.248C53.9648 38.48 53.1328 37.44 52.5248 36.128C51.1807 33.12 51.2927 29.616 52.8608 25.616C54.3648 21.872 56.6208 18.992 59.6288 16.976C62.9248 14.736 66.7648 13.888 71.1488 14.432ZM134.994 19.808C134.45 15.168 134.226 11.392 134.322 8.48C134.258 7.104 134.818 5.792 136.002 4.544C137.122 3.36 138.29 2.704 139.506 2.576C140.85 2.48 141.714 3.232 142.098 4.832C142.354 5.728 142.674 6.768 143.058 7.952C143.442 9.136 143.81 10.384 144.162 11.696C144.514 11.216 145.074 10.368 145.842 9.152C146.61 7.936 147.33 6.848 148.002 5.888C149.634 3.552 151.074 1.92 152.322 0.991999C153.538 0.511999 154.578 0.383999 155.442 0.607998C156.338 0.799997 156.978 1.12 157.362 1.568C157.778 2.016 157.938 2.672 157.842 3.536C157.778 5.552 156.242 8.72 153.234 13.04C152.53 14.032 151.81 15.184 151.074 16.496C150.37 17.808 149.538 19.28 148.578 20.912C147.65 22.512 146.754 24.112 145.89 25.712C143.906 29.328 142.354 32.768 141.234 36.032C141.266 35.968 141.394 36.048 141.618 36.272C141.842 36.464 142.05 36.752 142.242 37.136C142.754 38.096 142.706 38.896 142.098 39.536C140.562 41.136 138.658 42.032 136.386 42.224C134.306 42.384 132.514 42 131.01 41.072C129.506 40.208 129.01 39.136 129.522 37.856H129.378C130.082 36.032 130.882 34.32 131.778 32.72C132.674 31.088 133.602 29.408 134.562 27.68L136.722 23.84C136.178 23.968 135.73 23.584 135.378 22.688C135.122 21.952 134.994 20.992 134.994 19.808ZM174.797 17.408L174.989 17.456C175.053 17.456 175.085 17.472 175.085 17.504C175.917 17.184 176.605 17.424 177.149 18.224C177.501 18.768 177.773 19.6 177.965 20.72C178.029 22.256 177.869 24.384 177.484 27.104C176.749 32.608 176.349 35.888 176.285 36.944C176.349 38.064 175.661 38.832 174.221 39.248C172.973 39.632 171.725 39.616 170.477 39.2C169.165 38.752 168.621 38.064 168.845 37.136C168.589 37.616 168.333 37.952 168.077 38.144C167.821 38.368 167.309 38.656 166.541 39.008C165.805 39.392 164.749 39.696 163.373 39.92C161.997 40.176 160.621 40.24 159.245 40.112C157.869 40.016 156.605 39.68 155.453 39.104C154.333 38.56 153.581 37.696 153.197 36.512C152.46 34.208 152.556 31.28 153.485 27.728C154.125 25.392 155.277 23.328 156.941 21.536C158.861 19.488 161.037 17.792 163.469 16.448C165.293 15.456 167.053 14.864 168.749 14.672C169.325 14.608 169.821 14.624 170.237 14.72C170.685 14.816 171.149 14.912 171.629 15.008C172.141 15.104 172.621 15.248 173.069 15.44C174.221 15.92 174.797 16.576 174.797 17.408ZM165.917 30.128C166.141 29.68 166.317 29.12 166.445 28.448C166.605 27.776 166.813 27.04 167.069 26.24C164.477 27.296 162.493 28.592 161.117 30.128C159.613 31.824 159.709 32.992 161.405 33.632C162.877 34.016 163.949 33.776 164.621 32.912C164.909 32.528 165.165 32.048 165.389 31.472C165.613 30.896 165.885 30.304 166.205 29.696C166.109 29.856 166.013 30 165.917 30.128ZM208.643 12.032C209.027 15.296 206.643 18.768 201.491 22.448C200.147 23.408 198.883 24.288 197.699 25.088C196.515 25.888 195.491 26.624 194.627 27.296C193.795 27.936 193.331 28.496 193.235 28.976C193.171 29.744 192.803 30.384 192.131 30.896C191.459 31.408 190.707 31.776 189.875 32C189.043 32.192 188.211 32.256 187.379 32.192C186.547 32.128 185.939 31.904 185.555 31.52C184.659 29.6 185.171 27.296 187.091 24.608C187.955 23.424 188.963 22.24 190.115 21.056C191.267 19.84 192.387 18.672 193.475 17.552C194.595 16.4 195.587 15.312 196.451 14.288C197.443 13.072 198.051 11.952 198.275 10.928H198.131C197.907 11.12 197.683 11.36 197.459 11.648C197.267 11.904 196.835 12.208 196.163 12.56C195.491 12.912 194.883 13.2 194.339 13.424C193.827 13.648 193.331 13.872 192.851 14.096C192.403 14.288 192.115 14.416 191.987 14.48C191.891 14.544 191.779 14.608 191.651 14.672C191.555 14.736 191.411 14.8 191.219 14.864L190.451 15.152C187.667 15.824 185.683 15.44 184.499 14C184.083 13.488 183.699 12.784 183.347 11.888C182.995 10.608 183.347 9.104 184.403 7.376C185.299 5.872 186.419 4.736 187.763 3.968C189.107 3.168 190.787 2.512 192.803 2C194.851 1.456 196.867 1.184 198.851 1.184C200.835 1.184 202.659 1.488 204.323 2.096C205.987 2.704 207.235 3.68 208.067 5.024C208.387 5.632 208.483 6.288 208.355 6.992C208.227 7.696 208.099 8.256 207.971 8.672C207.875 9.056 207.827 9.408 207.827 9.728C207.859 10.048 207.987 10.416 208.211 10.832C208.435 11.216 208.579 11.616 208.643 12.032ZM190.307 38.768C189.635 40.112 188.755 41.088 187.667 41.696C186.579 42.336 185.523 42.656 184.499 42.656C183.507 42.688 182.675 42.416 182.003 41.84C181.331 41.264 181.059 40.416 181.187 39.296C181.251 37.728 182.035 36.656 183.539 36.08C185.459 35.312 187.267 35.312 188.963 36.08C190.531 36.784 190.979 37.68 190.307 38.768Z" fill="black"/>
<path d="M91.8998 1.76C96.5078 0.831998 100.092 1.408 102.652 3.488C103.868 4.48 104.668 5.92 105.052 7.808C105.468 9.696 105.26 11.808 104.428 14.144C104.076 15.232 103.468 16.048 102.604 16.592C101.74 17.136 100.844 17.456 99.9158 17.552C99.0198 17.616 98.2038 17.504 97.4678 17.216C96.7318 16.896 96.3318 16.448 96.2678 15.872L95.8358 14.912C95.0678 13.76 93.7398 13.616 91.8518 14.48C90.2198 15.216 88.5878 16.496 86.9557 18.32C85.2278 20.272 84.1078 22.032 83.5958 23.6C83.0198 25.328 82.7318 26.464 82.7318 27.008C82.6678 28.224 83.0998 29.312 84.0278 30.272C85.3718 31.136 86.7158 31.536 88.0598 31.472C89.4038 31.376 90.6038 31.072 91.6598 30.56C92.7158 30.016 93.5798 29.408 94.2518 28.736C94.9238 28.064 95.2598 27.584 95.2598 27.296C95.3558 27.104 95.4518 26.912 95.5478 26.72C95.6438 26.528 95.7238 26.336 95.7878 26.144C95.6598 26.144 95.6918 26.144 95.8838 26.144C96.0758 26.112 96.1238 26.112 96.0278 26.144C95.9318 26.144 95.9798 26.16 96.1718 26.192L96.4598 26.288C94.8918 27.696 93.3718 27.984 91.8998 27.152C91.3238 26.8 90.8118 26.432 90.3638 26.048C89.9158 25.632 89.4998 25.44 89.1158 25.472C88.4118 25.088 88.2518 24.336 88.6358 23.216C88.7958 22.768 89.0838 22.352 89.4998 21.968C89.9478 21.552 90.5078 21.264 91.1798 21.104C94.3798 19.728 97.3398 19.408 100.06 20.144C101.276 20.464 102.108 21.12 102.556 22.112C103.036 23.072 103.244 24.16 103.18 25.376C103.116 26.592 102.844 27.824 102.364 29.072C101.916 30.32 101.42 31.328 100.876 32.096C100.332 32.832 99.5638 33.712 98.5718 34.736C97.6118 35.76 96.3958 36.752 94.9238 37.712C91.3078 40.048 87.4358 41.168 83.3078 41.072C77.3238 40.976 73.7878 38.528 72.6997 33.728C72.3477 32.192 72.1877 30.464 72.2197 28.544C72.5397 22.976 74.2038 17.776 77.2118 12.944C78.6518 10.64 80.5878 8.368 83.0198 6.128C84.5558 4.752 86.2838 3.696 88.2038 2.96C89.2278 2.544 90.4598 2.144 91.8998 1.76ZM125.484 17.408L125.676 17.456C125.74 17.456 125.772 17.472 125.772 17.504C126.604 17.184 127.292 17.424 127.836 18.224C128.188 18.768 128.46 19.6 128.652 20.72C128.716 22.256 128.556 24.384 128.172 27.104C127.436 32.608 127.036 35.888 126.972 36.944C127.036 38.064 126.348 38.832 124.908 39.248C123.66 39.632 122.412 39.616 121.164 39.2C119.852 38.752 119.308 38.064 119.532 37.136C119.276 37.616 119.02 37.952 118.764 38.144C118.508 38.368 117.996 38.656 117.228 39.008C116.492 39.392 115.436 39.696 114.06 39.92C112.684 40.176 111.308 40.24 109.932 40.112C108.556 40.016 107.292 39.68 106.14 39.104C105.02 38.56 104.268 37.696 103.884 36.512C103.148 34.208 103.244 31.28 104.172 27.728C104.812 25.392 105.964 23.328 107.628 21.536C109.548 19.488 111.724 17.792 114.156 16.448C115.98 15.456 117.74 14.864 119.436 14.672C120.012 14.608 120.508 14.624 120.924 14.72C121.372 14.816 121.836 14.912 122.316 15.008C122.828 15.104 123.308 15.248 123.756 15.44C124.908 15.92 125.484 16.576 125.484 17.408ZM116.604 30.128C116.828 29.68 117.004 29.12 117.132 28.448C117.292 27.776 117.5 27.04 117.756 26.24C115.164 27.296 113.18 28.592 111.804 30.128C110.3 31.824 110.396 32.992 112.092 33.632C113.564 34.016 114.636 33.776 115.308 32.912C115.596 32.528 115.852 32.048 116.076 31.472C116.3 30.896 116.572 30.304 116.892 29.696C116.796 29.856 116.7 30 116.604 30.128Z" fill="#34C759"/>
</svg>
